
        <svg xmlns="http://www.w3.org/2000/svg" xmlns:xlink="http://www.w3.org/1999/xlink" version="1.1" width="3148.8833746898263" 
        height="1161.2903225806451" viewBox="0 0 3148.8833746898263 1161.2903225806451">
			
			<g transform="scale(7.444168734491315) translate(10, 10)">
				<defs id="SvgjsDefs1031"><linearGradient id="SvgjsLinearGradient1040"><stop id="SvgjsStop1041" stop-color="#905e26" offset="0"></stop><stop id="SvgjsStop1042" stop-color="#f5ec9b" offset="0.5"></stop><stop id="SvgjsStop1043" stop-color="#905e26" offset="1"></stop></linearGradient><linearGradient id="SvgjsLinearGradient1044"><stop id="SvgjsStop1045" stop-color="#905e26" offset="0"></stop><stop id="SvgjsStop1046" stop-color="#f5ec9b" offset="0.5"></stop><stop id="SvgjsStop1047" stop-color="#905e26" offset="1"></stop></linearGradient><linearGradient id="SvgjsLinearGradient1048"><stop id="SvgjsStop1049" stop-color="#905e26" offset="0"></stop><stop id="SvgjsStop1050" stop-color="#f5ec9b" offset="0.5"></stop><stop id="SvgjsStop1051" stop-color="#905e26" offset="1"></stop></linearGradient><linearGradient id="SvgjsLinearGradient1052"><stop id="SvgjsStop1053" stop-color="#905e26" offset="0"></stop><stop id="SvgjsStop1054" stop-color="#f5ec9b" offset="0.5"></stop><stop id="SvgjsStop1055" stop-color="#905e26" offset="1"></stop></linearGradient></defs><g id="SvgjsG1032" featureKey="rootContainer" transform="matrix(1,0,0,1,0,0)" fill="url(#SvgjsLinearGradient1040)">    <path xmlns="http://www.w3.org/2000/svg" fill-rule="nonzero" d="             M0,0             H403             V136             H0,0             z             M4,4             v128             h395             v-128             z     "></path></g><g id="SvgjsG1033" featureKey="symbolFeature-0" transform="matrix(1.0490357630019225,0,0,1.0490357630019225,-985.9831954510367,-1505.5635975370199)" fill="url(#SvgjsLinearGradient1044)"><g xmlns="http://www.w3.org/2000/svg"><path d="M1032.8,1546.6h-65.6c-6.1,0-11.1-5-11.1-11.1v-37c0-6.1,5-11.1,11.1-11.1h65.6c6.1,0,11.1,5,11.1,11.1v37   C1043.9,1541.7,1038.9,1546.6,1032.8,1546.6z M967.2,1491.2c-4,0-7.3,3.3-7.3,7.3v37c0,4,3.3,7.3,7.3,7.3h65.6c4,0,7.3-3.3,7.3-7.3   v-37c0-4-3.3-7.3-7.3-7.3H967.2z"></path></g><g xmlns="http://www.w3.org/2000/svg"><path d="M962.4,1516.2v16.5c0,4.5,3.7,8.2,8.2,8.2h58.7c4.6,0,8.2-3.7,8.2-8.2v-16.5H962.4z"></path></g><g xmlns="http://www.w3.org/2000/svg"><rect x="962.4" y="1513.5" width="75.2" height="1.6"></rect></g><g xmlns="http://www.w3.org/2000/svg"><g><path d="M992.9,1501.8h-26.9c-1.5,0-2.6-1.2-2.6-2.6c0-1.5,1.2-2.7,2.6-2.7h26.9c1.5,0,2.6,1.2,2.6,2.6    C995.5,1500.6,994.3,1501.8,992.9,1501.8z M965.9,1498.1c-0.6,0-1,0.5-1,1c0,0.6,0.5,1,1,1h26.9c0.6,0,1-0.5,1-1c0-0.6-0.5-1-1-1    H965.9z"></path></g><g><path d="M992.9,1508.8h-26.9c-1.5,0-2.6-1.2-2.6-2.6c0-1.5,1.2-2.7,2.6-2.7h26.9c1.5,0,2.6,1.2,2.6,2.6    C995.5,1507.6,994.3,1508.8,992.9,1508.8z M965.9,1505.1c-0.6,0-1,0.5-1,1c0,0.6,0.5,1,1,1h26.9c0.6,0,1-0.5,1-1c0-0.6-0.5-1-1-1    H965.9z"></path></g></g><g xmlns="http://www.w3.org/2000/svg"><path d="M1009.4,1507.3c-2.6,0-4.6-2.1-4.6-4.6s2.1-4.6,4.6-4.6c2.6,0,4.6,2.1,4.6,4.6S1012,1507.3,1009.4,1507.3z M1009.4,1499.6   c-1.7,0-3,1.3-3,3c0,1.7,1.3,3,3,3c1.7,0,3-1.3,3-3C1012.4,1501,1011.1,1499.6,1009.4,1499.6z"></path></g><g xmlns="http://www.w3.org/2000/svg"><path d="M1026.1,1510.6c-4.4,0-7.9-3.6-7.9-7.9c0-4.4,3.6-7.9,7.9-7.9c4.4,0,7.9,3.6,7.9,7.9   C1034,1507,1030.4,1510.6,1026.1,1510.6z M1026.1,1496.4c-3.5,0-6.3,2.8-6.3,6.3c0,3.5,2.8,6.3,6.3,6.3c3.5,0,6.3-2.8,6.3-6.3   C1032.3,1499.2,1029.5,1496.4,1026.1,1496.4z"></path></g><g xmlns="http://www.w3.org/2000/svg"><rect x="976.6" y="1471.7" transform="matrix(0.794 0.6079 -0.6079 0.794 1102.0327 -307.5212)" width="56.3" height="1.1"></rect></g><g xmlns="http://www.w3.org/2000/svg"><circle cx="982.4" cy="1455.1" r="1.8"></circle></g><g xmlns="http://www.w3.org/2000/svg"><path d="M1021.1,1503.2c-0.3,0-0.6-0.3-0.6-0.6c0-3.1,2.5-5.6,5.6-5.6c0.3,0,0.6,0.3,0.6,0.6s-0.3,0.6-0.6,0.6   c-2.4,0-4.4,2-4.4,4.4C1021.6,1503,1021.4,1503.2,1021.1,1503.2z"></path></g><g xmlns="http://www.w3.org/2000/svg"><path d="M1007.2,1502.9c-0.2,0-0.3-0.1-0.3-0.3c0-1.4,1.1-2.5,2.5-2.5c0.2,0,0.3,0.1,0.3,0.3s-0.1,0.3-0.3,0.3c-1.1,0-2,0.9-2,2   C1007.4,1502.8,1007.3,1502.9,1007.2,1502.9z"></path></g></g><g id="SvgjsG1034" featureKey="nameFeature-0" transform="matrix(1.243855342661644,0,0,1.243855342661644,127.65663617654495,-0.9262641119397301)" fill="url(#SvgjsLinearGradient1048)"><path d="M1.08 39.4 l0 -5.64 c0.48 0.12 1.08 0.24 1.76 0.32 c0.68 0.12 1.4 0.2 2.16 0.24 s1.52 0.08 2.32 0.12 s1.56 0.08 2.24 0.08 c1.88 0 3.2 -0.12 4 -0.32 c0.76 -0.2 1.16 -0.56 1.16 -1.12 c0 -0.48 -0.36 -0.84 -0.72 -1.12 c-1.32 -0.88 -2.88 -1.24 -4.44 -1.6 c-4.4 -0.88 -8.44 -2.64 -8.44 -7.68 c0 -5.96 5.64 -7.36 10.48 -7.36 c2.68 0 5.4 0.28 8 0.92 l0 5.64 c-0.4 -0.12 -0.92 -0.2 -1.56 -0.32 c-0.68 -0.08 -1.36 -0.16 -2.12 -0.24 c-1.56 -0.16 -3.04 -0.24 -4.6 -0.24 c-0.88 0 -2.72 0 -3.56 0.32 c-0.56 0.2 -0.92 0.44 -0.92 1.08 c0 0.32 0.08 0.6 0.24 0.84 c0.16 0.28 0.44 0.48 0.8 0.68 c1.08 0.6 2.48 0.96 3.68 1.24 c1 0.24 2 0.52 3.04 0.8 c3.52 0.96 5.84 2.92 5.84 6.68 c0 6.2 -6.16 7.52 -11.12 7.52 c-2.72 0 -5.56 -0.2 -8.24 -0.84 z M41.504999999999995 30 c-0.16 -2.92 -1.48 -4.64 -4.52 -4.64 c-0.84 0 -1.56 0.12 -2.16 0.36 c-1.84 0.84 -2.52 2.4 -2.52 4.32 c0 0.64 0.08 1.24 0.28 1.76 c0.6 2.08 2.4 2.84 4.4 2.84 c3.04 0 4.52 -1.64 4.52 -4.64 z M49.105000000000004 40 l-6 0 c-0.4 -1 -0.76 -2 -1 -3.04 c-1.36 2.24 -3.44 3.24 -6 3.24 c-5.72 0 -9.8 -4.8 -9.8 -10.28 c0 -6.32 4.72 -10.12 10.68 -10.12 c6.36 0 10.36 4.08 10.52 10.2 c0.04 0.52 0.04 1.12 0.04 1.84 c0 2.8 0.44 5.6 1.56 8.16 z M71.21 33.4 l0 6 c-2.04 0.68 -4.16 0.88 -6.28 0.88 c-6.2 0 -10.6 -4.12 -10.6 -10.24 c0 -6.36 4.56 -10.24 10.6 -10.24 c2.12 0 4.24 0.2 6.28 0.88 l0 6 c-1.76 -0.92 -3.96 -1.16 -5.92 -1.16 c-1.32 0 -2.92 0.28 -3.84 1.32 c-0.84 0.84 -1.12 2.04 -1.12 3.16 c0 0.64 0.08 1.24 0.28 1.76 c0.16 0.56 0.44 1.04 0.84 1.44 c0.88 1.08 2.52 1.36 3.84 1.36 c1.76 0 4.36 -0.32 5.92 -1.16 z M90.43499999999999 20 l6 0 l0 2 c0 3.04 -1.04 5.96 -3.28 8.04 l5.28 9.96 l-7.4 0 l-6.2 -11.84 l0 11.84 l-6 0 l0 -28 l6 0 l0 15.08 l0.92 0 c3.24 0 4.68 -2.16 4.68 -5.12 l0 -1.96 z M110.22 30 l0 10 l-6 0 l0 -28 l6 0 l0 9.84 c1.4 -1.48 3.16 -2.04 5.16 -2.04 c5.68 0 9.24 4.88 9.24 10.2 l0 10 l-6 0 l0 -10 c0 -2.72 -1.08 -4.64 -4 -4.64 c-2.88 0 -4.4 1.84 -4.4 4.64 z M146.325 30 c-0.16 -2.92 -1.48 -4.64 -4.52 -4.64 c-0.84 0 -1.56 0.12 -2.16 0.36 c-1.84 0.84 -2.52 2.4 -2.52 4.32 c0 0.64 0.08 1.24 0.28 1.76 c0.6 2.08 2.4 2.84 4.4 2.84 c3.04 0 4.52 -1.64 4.52 -4.64 z M153.925 40 l-6 0 c-0.4 -1 -0.76 -2 -1 -3.04 c-1.36 2.24 -3.44 3.24 -6 3.24 c-5.72 0 -9.8 -4.8 -9.8 -10.28 c0 -6.32 4.72 -10.12 10.68 -10.12 c6.36 0 10.36 4.08 10.52 10.2 c0.04 0.52 0.04 1.12 0.04 1.84 c0 2.8 0.44 5.6 1.56 8.16 z M180.71 30 l0 10 l-6 0 l0 -10 c0 -2.76 -1.28 -4.64 -4.2 -4.64 c-2.88 0 -4.2 1.92 -4.2 4.64 l0 10 l-6 0 l0 -10 c0 -6.16 4.24 -10.2 10.2 -10.2 c6.2 0 10.2 4.24 10.2 10.2 z M202.415 30 c0 -3 -1.48 -4.64 -4.52 -4.64 c-0.84 0 -1.56 0.12 -2.16 0.36 c-1.12 0.52 -1.88 1.28 -2.24 2.48 c-0.2 0.56 -0.28 1.16 -0.28 1.8 s0.08 1.24 0.28 1.8 c0.32 1.16 1.16 2 2.24 2.44 c0.6 0.28 1.32 0.4 2.16 0.4 c3.04 0 4.52 -1.64 4.52 -4.64 z M202.415 22 l0 -10 l6 0 l0 18 c0 6.36 -4.52 10.2 -10.56 10.2 c-6.16 0 -10.64 -4 -10.64 -10.12 c0 -5.64 4.16 -10.28 9.84 -10.28 c2.12 0 3.96 0.6 5.36 2.2 z"></path></g><g id="SvgjsG1035" featureKey="nameFeature-1" transform="matrix(2.182958677623815,0,0,2.182958677623815,124.02285271609894,34.55086114514798)" fill="url(#SvgjsLinearGradient1052)"><path d="M8.28 21.16 l0 5.84 l5.6 0 c1.84 0 2.92 -1.08 2.92 -2.92 s-1.08 -2.92 -2.92 -2.92 l-5.6 0 z M17.36 30.96 c1.12 1.52 2.24 3.04 3.4 4.52 c1.12 1.48 2.24 3 3.36 4.52 l-7.32 0 c-1.44 -1.92 -2.84 -3.84 -4.24 -5.76 c-1.4 -1.88 -2.84 -3.8 -4.28 -5.72 l0 11.48 l-6 0 l0 -24.48 l11.6 0 c4.56 0 8.44 3.48 8.44 8.08 c0 3.24 -2 6.08 -4.96 7.36 z M44.385 30 c-0.16 -2.92 -1.48 -4.64 -4.52 -4.64 c-0.84 0 -1.56 0.12 -2.16 0.36 c-1.84 0.84 -2.52 2.4 -2.52 4.32 c0 0.64 0.08 1.24 0.28 1.76 c0.6 2.08 2.4 2.84 4.4 2.84 c3.04 0 4.52 -1.64 4.52 -4.64 z M51.985 40 l-6 0 c-0.4 -1 -0.76 -2 -1 -3.04 c-1.36 2.24 -3.44 3.24 -6 3.24 c-5.72 0 -9.8 -4.8 -9.8 -10.28 c0 -6.32 4.72 -10.12 10.68 -10.12 c6.36 0 10.36 4.08 10.52 10.2 c0.04 0.52 0.04 1.12 0.04 1.84 c0 2.8 0.44 5.6 1.56 8.16 z M72.41 30 c0 -3 -1.48 -4.64 -4.52 -4.64 c-0.84 0 -1.56 0.12 -2.16 0.36 c-1.12 0.52 -1.88 1.28 -2.24 2.48 c-0.2 0.56 -0.28 1.16 -0.28 1.8 s0.08 1.24 0.28 1.8 c0.32 1.16 1.16 2 2.24 2.44 c0.6 0.28 1.32 0.4 2.16 0.4 c3.04 0 4.52 -1.64 4.52 -4.64 z M72.41 22 l0 -10 l6 0 l0 18 c0 6.36 -4.52 10.2 -10.56 10.2 c-6.16 0 -10.64 -4 -10.64 -10.12 c0 -5.64 4.16 -10.28 9.84 -10.28 c2.12 0 3.96 0.6 5.36 2.2 z M86.195 20 l6 0 l0 20 l-6 0 l0 -20 z M89.195 18.12 c-2.04 0 -3.48 -1.44 -3.48 -3.48 c0 -2.08 1.44 -3.44 3.48 -3.44 c2.08 0 3.44 1.36 3.44 3.44 c0 2.12 -1.32 3.48 -3.44 3.48 z M109.82 34.64 c2.92 0 4.6 -1.72 4.6 -4.64 s-1.68 -4.64 -4.6 -4.64 s-4.6 1.72 -4.6 4.64 s1.68 4.64 4.6 4.64 z M109.82 40.2 c-6.16 0 -10.6 -4.08 -10.6 -10.2 c0 -6.32 4.6 -10.2 10.6 -10.2 c6.2 0 10.6 4.08 10.6 10.2 c0 6.28 -4.64 10.2 -10.6 10.2 z"></path></g>
			</g>
		</svg>
	